<?xml version="1.0" encoding="utf-8"?>
<!-- Generator: Adobe Illustrator 22.0.1, SVG Export Plug-In . SVG Version: 6.00 Build 0)  -->
<svg version="1.1" id="Layer_1" xmlns="http://www.w3.org/2000/svg" xmlns:xlink="http://www.w3.org/1999/xlink" x="0px" y="0px"
	 viewBox="0 0 49.9 55.4" style="enable-background:new 0 0 49.9 55.4;" xml:space="preserve">
<g>
	<path d="M33.7,42.7c-2.4,0-4.6,0-7,0c0-10,0-19.8,0-29.8c2.3,0,4.6,0,7,0c0,4.1,0,8.2,0,12.4c2.1,0,4.1,0,6.2,0
		c0-8.4,0-16.8,0-25.3c3.4,0,6.6,0,9.9,0c0,18.5,0,36.9,0,55.3c-5.4,0-10.7,0-16.2,0C33.7,51.2,33.7,47,33.7,42.7z"/>
	<path d="M0,0c3.3,0,6.5,0,9.8,0c0,8.4,0,16.8,0,25.3c2.1,0,4.1,0,6.2,0c0-4.1,0-8.2,0-12.4c2.4,0,4.7,0,7.1,0c0,9.9,0,19.7,0,29.7
		c-2.3,0-4.6,0-7,0c0,4.3,0,8.5,0,12.7c-5.4,0-10.7,0-16.1,0C0,36.9,0,18.5,0,0z"/>
</g>
</svg>
